<?xml version="1.0" encoding="UTF-8" standalone="no"?>
<!-- Generator: Adobe Illustrator 25.0.0, SVG Export Plug-In . SVG Version: 6.00 Build 0)  -->

<svg
   version="1.1"
   id="Calque_1"
   x="0px"
   y="0px"
   viewBox="0 0 1920 1080"
   style="enable-background:new 0 0 1920 1080;"
   xml:space="preserve"
   sodipodi:docname="2k.svgz"
   xmlns:inkscape="http://www.inkscape.org/namespaces/inkscape"
   xmlns:sodipodi="http://sodipodi.sourceforge.net/DTD/sodipodi-0.dtd"
   xmlns="http://www.w3.org/2000/svg"
   xmlns:svg="http://www.w3.org/2000/svg"><defs
   id="defs61" /><sodipodi:namedview
   id="namedview59"
   pagecolor="#ffffff"
   bordercolor="#000000"
   borderopacity="0.25"
   inkscape:showpageshadow="2"
   inkscape:pageopacity="0.0"
   inkscape:pagecheckerboard="0"
   inkscape:deskcolor="#d1d1d1" />
<style
   type="text/css"
   id="style2">
	.st0{fill:#1D1D1B;}
</style>
<g
   id="g56">
	<g
   id="g28">
		<g
   id="g26">
			<path
   class="st0"
   d="M671.08,407.6c0.57,0,1.05,0.16,1.43,0.48c0.38,0.32,0.57,0.8,0.57,1.43v3.24c0,1.65-0.45,2.99-1.33,4     c-0.89,1.02-2.07,1.53-3.53,1.53h-11.73v51.38h12.68c0.57,0,1.05,0.16,1.43,0.48c0.38,0.32,0.57,0.8,0.57,1.43v3.24     c0,1.65-0.45,2.99-1.33,4c-0.89,1.02-2.07,1.53-3.53,1.53h-9.82v50.05h11.73c1.46,0,2.64,0.51,3.53,1.53     c0.89,1.02,1.33,2.35,1.33,4v3.24c0,0.64-0.19,1.11-0.57,1.43c-0.38,0.32-0.86,0.48-1.43,0.48h-25.45     c-0.64,0-1.11-0.19-1.43-0.57c-0.32-0.38-0.48-0.86-0.48-1.43V409.6c0-0.57,0.16-1.05,0.48-1.43c0.32-0.38,0.79-0.57,1.43-0.57     H671.08z"
   id="path4" />
			<path
   class="st0"
   d="M748.2,541.06c-0.57,0-1.02-0.19-1.33-0.57c-0.32-0.38-0.51-0.82-0.57-1.34l-10.49-108.2     c-0.06-0.57,0.11-1.11,0.52-1.62c0.41-0.51,1.06-0.76,1.95-0.76h4.67c1.59,0,2.91,0.46,3.96,1.38c1.05,0.92,1.64,2.05,1.76,3.38     l4.86,80.46l4.96-80.46c0.13-1.34,0.72-2.46,1.76-3.38c1.05-0.92,2.37-1.38,3.96-1.38h4.67c0.89,0,1.54,0.25,1.95,0.76     c0.41,0.51,0.59,1.05,0.52,1.62l-10.49,108.2c-0.06,0.51-0.25,0.95-0.57,1.34c-0.32,0.38-0.76,0.57-1.33,0.57H748.2z"
   id="path6" />
			<path
   class="st0"
   d="M859.35,428.57c0.57,0,1.05,0.16,1.43,0.48c0.38,0.32,0.57,0.8,0.57,1.43v3.24c0,1.65-0.45,2.99-1.33,4     c-0.89,1.02-2.07,1.53-3.53,1.53h-11.73v40.9h12.68c0.57,0,1.05,0.16,1.43,0.48c0.38,0.32,0.57,0.8,0.57,1.43v3.24     c0,1.65-0.45,2.99-1.33,4c-0.89,1.02-2.07,1.53-3.53,1.53h-9.82v39.56h11.73c1.46,0,2.64,0.51,3.53,1.53     c0.89,1.02,1.33,2.35,1.33,4v3.24c0,0.64-0.19,1.11-0.57,1.43c-0.38,0.32-0.86,0.48-1.43,0.48H833.9c-0.64,0-1.11-0.19-1.43-0.57     c-0.32-0.38-0.48-0.86-0.48-1.43V430.58c0-0.57,0.16-1.05,0.48-1.43c0.32-0.38,0.79-0.57,1.43-0.57H859.35z"
   id="path8" />
			<path
   class="st0"
   d="M960.12,428.57c0.63,0,1.11,0.19,1.43,0.57c0.32,0.38,0.48,0.86,0.48,1.43v108.48     c0,0.57-0.16,1.05-0.48,1.43c-0.32,0.38-0.79,0.57-1.43,0.57h-5.34c-1.65,0-2.92-0.4-3.81-1.19c-0.89-0.79-1.43-1.86-1.62-3.19     c0-0.76-0.24-2.29-0.72-4.58c-0.48-2.29-1.08-5.04-1.81-8.25c-0.73-3.21-1.54-6.74-2.43-10.58c-0.89-3.85-1.78-7.77-2.67-11.77     c-0.89-4-1.73-7.94-2.53-11.82c-0.79-3.88-1.45-7.4-1.95-10.58l0.95,56.34c0.06,1.65-0.38,3.01-1.33,4.05     c-0.95,1.05-2.35,1.57-4.19,1.57h-5.34c-0.64,0-1.11-0.19-1.43-0.57c-0.32-0.38-0.48-0.86-0.48-1.43V430.58     c0-0.57,0.16-1.05,0.48-1.43c0.32-0.38,0.79-0.57,1.43-0.57h5.34c1.59,0,2.88,0.43,3.86,1.29c0.98,0.86,1.54,1.99,1.67,3.38     c0.13,1.02,0.41,2.84,0.86,5.48c0.44,2.64,1.02,5.73,1.72,9.29c0.7,3.56,1.46,7.44,2.29,11.63c0.82,4.19,1.67,8.37,2.53,12.53     c0.86,4.16,1.68,8.12,2.48,11.87c0.79,3.75,1.51,6.99,2.14,9.73l-0.95-60.34c0-1.46,0.51-2.64,1.52-3.53     c1.02-0.89,2.35-1.33,4-1.33H960.12z"
   id="path10" />
			<path
   class="st0"
   d="M1058.4,428.57c0.57,0,1.05,0.16,1.43,0.48c0.38,0.32,0.57,0.8,0.57,1.43v3.24c0,1.65-0.45,2.99-1.33,4     c-0.89,1.02-2.07,1.53-3.53,1.53h-5.91v98.38c0,0.95-0.33,1.76-1,2.43c-0.67,0.67-1.48,1-2.43,1h-5.91c-0.95,0-1.76-0.33-2.43-1     c-0.67-0.67-1-1.48-1-2.43v-98.38h-5.91c-1.46,0-2.64-0.51-3.53-1.53c-0.89-1.01-1.33-2.35-1.33-4v-3.24     c0-0.63,0.19-1.11,0.57-1.43c0.38-0.32,0.86-0.48,1.43-0.48H1058.4z"
   id="path12" />
			<path
   class="st0"
   d="M1153.82,467.95c-1.84,0-3.23-0.53-4.15-1.57c-0.92-1.05-1.38-2.4-1.38-4.05v-18.88     c0-1.72-0.46-3.1-1.38-4.15c-0.92-1.05-2.3-1.57-4.15-1.57c-1.91,0-3.3,0.53-4.19,1.57c-0.89,1.05-1.34,2.43-1.34,4.15     c0,5.15,0.33,9.6,1,13.35c0.67,3.75,1.57,7.05,2.72,9.91c1.14,2.86,2.43,5.44,3.86,7.72c1.43,2.29,2.88,4.58,4.34,6.86     c1.46,2.29,2.91,4.72,4.34,7.29c1.43,2.57,2.72,5.59,3.86,9.06c1.14,3.46,2.05,7.5,2.72,12.11c0.67,4.61,1,10.09,1,16.44     c0,2.54-0.43,4.81-1.29,6.81c-0.86,2-2.1,3.72-3.72,5.15c-1.62,1.43-3.56,2.53-5.81,3.29c-2.26,0.76-4.75,1.14-7.48,1.14     c-5.78,0-10.28-1.46-13.49-4.38c-3.21-2.92-4.81-6.93-4.81-12.01v-23.45c0-0.57,0.16-1.05,0.48-1.43     c0.32-0.38,0.79-0.57,1.43-0.57h5.34c1.84,0,3.22,0.53,4.15,1.57c0.92,1.05,1.38,2.4,1.38,4.05v19.83c0,1.72,0.46,3.1,1.38,4.15     c0.92,1.05,2.3,1.57,4.15,1.57c1.91,0,3.3-0.53,4.19-1.57s1.34-2.43,1.34-4.15c0-6.1-0.33-11.31-1-15.63     c-0.67-4.32-1.57-8.06-2.72-11.2c-1.14-3.15-2.43-5.88-3.86-8.2c-1.43-2.32-2.88-4.54-4.34-6.67c-1.46-2.13-2.91-4.34-4.34-6.63     c-1.43-2.29-2.72-4.99-3.86-8.1c-1.14-3.11-2.05-6.77-2.72-10.96c-0.67-4.19-1-9.31-1-15.35c0-2.54,0.43-4.82,1.29-6.81     c0.86-2,2.1-3.72,3.72-5.15c1.62-1.43,3.54-2.53,5.77-3.29c2.22-0.76,4.73-1.14,7.53-1.14c5.78,0,10.28,1.46,13.49,4.38     c3.21,2.92,4.81,6.93,4.81,12.01v22.5c0,0.57-0.16,1.05-0.48,1.43c-0.32,0.38-0.79,0.57-1.43,0.57H1153.82z"
   id="path14" />
			<path
   class="st0"
   d="M1271.85,478.81c0.64,0,1.11,0.19,1.43,0.57c0.32,0.38,0.48,0.86,0.48,1.43v45.38     c0,5.09-1.61,9.09-4.82,12.01c-3.21,2.92-7.71,4.38-13.49,4.38c-2.8,0-5.31-0.38-7.53-1.14c-2.23-0.76-4.15-1.86-5.77-3.29     c-1.62-1.43-2.86-3.15-3.72-5.15c-0.86-2-1.29-4.27-1.29-6.81V422.47c0-5.08,1.61-9.09,4.82-12.01     c3.21-2.92,7.71-4.38,13.49-4.38c2.73,0,5.23,0.38,7.48,1.14c2.26,0.76,4.19,1.86,5.81,3.29c1.62,1.43,2.86,3.15,3.72,5.15     c0.86,2,1.29,4.27,1.29,6.81v46.62c0,0.57-0.16,1.05-0.48,1.43c-0.32,0.38-0.8,0.57-1.43,0.57h-5.34c-1.84,0-3.23-0.53-4.15-1.57     c-0.92-1.05-1.38-2.4-1.38-4.05v-42.99c0-1.72-0.45-3.1-1.34-4.15c-0.89-1.05-2.29-1.57-4.19-1.57c-1.84,0-3.23,0.53-4.15,1.57     c-0.92,1.05-1.38,2.43-1.38,4.15v103.72c0,1.72,0.44,3.1,1.33,4.15s2.29,1.57,4.19,1.57c1.84,0,3.23-0.53,4.15-1.57     c0.92-1.05,1.38-2.43,1.38-4.15v-34.6c-1.72,0-3.1-0.46-4.15-1.38c-1.05-0.92-1.57-2.3-1.57-4.15v-5.34     c0-0.63,0.19-1.11,0.57-1.43c0.38-0.32,0.86-0.48,1.43-0.48H1271.85z"
   id="path16" />
			<path
   class="st0"
   d="M1358.98,428.57c2.73,0,5.21,0.4,7.44,1.19c2.22,0.79,4.13,1.89,5.72,3.29c1.59,1.4,2.81,3.11,3.67,5.15     c0.86,2.03,1.29,4.29,1.29,6.77v34.7c0,2.8-0.56,5.09-1.67,6.86c-1.11,1.78-2.65,3.21-4.62,4.29c1.97,1.08,3.51,2.5,4.62,4.24     c1.11,1.75,1.67,3.99,1.67,6.72v37.27c0,0.57-0.16,1.05-0.48,1.43s-0.8,0.57-1.43,0.57h-5.34c-1.84,0-3.23-0.52-4.15-1.57     c-0.92-1.05-1.38-2.4-1.38-4.05v-33.65c0-1.72-0.43-3.1-1.29-4.15c-0.86-1.05-2.27-1.57-4.24-1.57h-5.53v39.37     c0,1.65-0.46,3.01-1.38,4.05c-0.92,1.05-2.3,1.57-4.15,1.57h-5.34c-0.63,0-1.11-0.19-1.43-0.57c-0.32-0.38-0.48-0.86-0.48-1.43     V430.58c0-0.57,0.16-1.05,0.48-1.43c0.32-0.38,0.8-0.57,1.43-0.57H1358.98z M1353.26,439.25v46.14h5.53     c1.91,0,3.3-0.54,4.19-1.62c0.89-1.08,1.34-2.44,1.34-4.1v-34.7c0-1.65-0.46-3.02-1.38-4.1c-0.92-1.08-2.3-1.62-4.15-1.62     H1353.26z"
   id="path18" />
			<path
   class="st0"
   d="M1440.01,443.45c0-5.08,1.61-9.09,4.82-12.01c3.21-2.92,7.71-4.38,13.49-4.38c2.73,0,5.23,0.38,7.48,1.14     c2.26,0.76,4.19,1.86,5.81,3.29c1.62,1.43,2.86,3.15,3.72,5.15c0.86,2,1.29,4.27,1.29,6.81v82.75c0,5.09-1.61,9.09-4.82,12.01     c-3.21,2.92-7.71,4.38-13.49,4.38c-2.8,0-5.31-0.38-7.53-1.14c-2.23-0.76-4.15-1.86-5.77-3.29c-1.62-1.43-2.86-3.15-3.72-5.15     c-0.86-2-1.29-4.27-1.29-6.81V443.45z M1463.84,443.45c0-1.72-0.45-3.1-1.34-4.15s-2.29-1.57-4.19-1.57     c-1.84,0-3.23,0.53-4.15,1.57c-0.92,1.05-1.38,2.43-1.38,4.15v82.75c0,1.72,0.44,3.1,1.33,4.15s2.29,1.57,4.19,1.57     c1.84,0,3.23-0.53,4.15-1.57c0.92-1.05,1.38-2.43,1.38-4.15V443.45z"
   id="path20" />
			<path
   class="st0"
   d="M1579.95,526.19c0,5.09-1.61,9.09-4.82,12.01c-3.21,2.92-7.71,4.38-13.49,4.38c-2.8,0-5.31-0.38-7.53-1.14     c-2.23-0.76-4.15-1.86-5.77-3.29c-1.62-1.43-2.86-3.15-3.72-5.15c-0.86-2-1.29-4.27-1.29-6.81v-95.62c0-0.57,0.16-1.05,0.48-1.43     c0.32-0.38,0.8-0.57,1.43-0.57h5.34c1.65,0,2.99,0.45,4,1.33c1.01,0.89,1.53,2.07,1.53,3.53v92.76c0,1.72,0.44,3.1,1.33,4.15     s2.29,1.57,4.19,1.57c1.84,0,3.23-0.53,4.15-1.57c0.92-1.05,1.38-2.43,1.38-4.15v-92.76c0-1.46,0.51-2.64,1.53-3.53     c1.01-0.89,2.35-1.33,4-1.33h5.34c0.64,0,1.11,0.19,1.43,0.57c0.32,0.38,0.48,0.86,0.48,1.43V526.19z"
   id="path22" />
			<path
   class="st0"
   d="M1664.98,428.57c2.73,0,5.23,0.38,7.48,1.14c2.26,0.76,4.19,1.86,5.81,3.29c1.62,1.43,2.86,3.15,3.72,5.15     c0.86,2,1.29,4.27,1.29,6.81v40.13c0,5.09-1.61,9.09-4.82,12.01c-3.21,2.92-7.71,4.39-13.49,4.39h-5.53v33.94     c0,1.65-0.46,3.01-1.38,4.05c-0.92,1.05-2.3,1.57-4.15,1.57h-5.34c-0.63,0-1.11-0.19-1.43-0.57c-0.32-0.38-0.48-0.86-0.48-1.43     V430.58c0-0.57,0.16-1.05,0.48-1.43c0.32-0.38,0.8-0.57,1.43-0.57H1664.98z M1659.46,439.25v51.57h5.53     c1.91,0,3.3-0.54,4.19-1.62c0.89-1.08,1.34-2.44,1.34-4.1v-40.13c0-1.65-0.43-3.02-1.29-4.1c-0.86-1.08-2.27-1.62-4.24-1.62     H1659.46z"
   id="path24" />
		</g>
	</g>
	<g
   id="g34">
		<path
   class="st0"
   d="M546.32,475.8c4.42-7.44,6.66-15.69,6.66-24.52v-2.35c0-0.54,0.18-0.97,0.57-1.36    c0.39-0.39,0.82-0.57,1.36-0.57h1.4v-3.98h-23.18V447h1.4c0.67,0,1.17,0.18,1.55,0.57c0.39,0.39,0.57,0.82,0.57,1.36v2.35    c0,9.1-3.29,16.93-9.79,23.31c-6.35,6.48-14.19,9.77-23.29,9.77c-12.67,0-23.78,4.3-33.08,12.79v-37.6    c5.04-1.91,9.96-4.16,14.09-7.61c3.64-3.05,7.26-2.73,11.13-1.27c4.43,1.67,7.55,4.81,9.44,9.15c0.16,0.27,0.32,0.55,0.48,0.82    c0.16,0.36,0.33,0.71,0.49,1.07c0.91,1.34,1.42,2.85,1.83,4.41c0.17,0.06,0.29,0.17,0.37,0.32c4.06-0.95,6.85-5.08,6.86-10.38    c0.01-3.5,0.11-6.92,2.87-9.57c-0.05-0.11-0.02-0.19,0.09-0.24c0.51-0.73,1.02-1.45,1.52-2.18c0.01-0.16,0.06-0.31,0.16-0.44    c0.15-0.2,0.29-0.41,0.44-0.61l-0.13,0.05c1.76-4.92,2.32-9.85,0.18-14.81c-4.9-6.64-11.66-9.34-19.63-8.39    c-3.58,0.43-7.04,0.78-10.65,0.55c-4.86-0.32-7.77,3.39-5.89,7.03c4.16,5.7,5.71,11.87,3.44,18.76c-0.31,0.95-0.75,1.78-1.55,2.41    c-4.83,3.77-10.02,6.7-15.55,8.87v-31.03c0.26-3.74,1.86-15.74,11.79-26.66c1.53-1.53,3.13-3,4.82-4.39    c5.13-4.23,10.96-6.82,17.74-6.82c2.14,0,3.01-1.11,3.06-3.13c0.06-2.63-0.8-5.02-1.82-7.38c-0.3-0.55-0.59-1.09-0.89-1.63    c-0.11-0.16-0.23-0.32-0.34-0.47c-0.88-0.99-1.77-1.97-2.66-2.96c-0.63-0.54-1.26-1.07-1.89-1.61c-0.99-0.65-1.98-1.31-2.97-1.96    c-4.23-3.12-13.98-8.68-13.98-8.68l-0.01,0.01c-2.78-1.98-5.55-3.96-8.89-4.96c-3.55-1.54-7.29-2.06-11.12-2.11    c-11.65-0.14-23.06,9.49-23.52,21.31c-0.09,2.25-1.13,3.78-2.83,5.11c-3.81,2.99-5.91,6.99-6.38,11.78    c-0.35,3.5,1.09,5.48,4.52,5.98c6.03,0.88,11.46,2.83,16.33,5.83c2.3,1.69,2.67,3.81,2.73,4.69v6.97    c-9.43-8.95-20.79-13.5-33.82-13.5c-12.84,0-24.11,4.41-33.47,13.11c-9.25,8.59-14.52,19.28-15.68,31.78h-0.05    c0,0.39-0.09,0.72-0.28,1.02c-0.21,0.34-0.48,0.61-0.83,0.83c-0.3,0.19-0.62,0.27-1.02,0.27h-1.4v3.78h22.98v-3.78h-1.4    c-0.72,0-1.23-0.22-1.52-1.25c0.91-8.25,4.48-15.28,10.6-20.9c6.17-5.67,13.6-8.54,22.07-8.54c9.1,0,16.98,3.26,23.4,9.68    c6.42,6.42,9.68,14.3,9.68,23.4c0,7.48-2.24,14.11-6.58,19.81c-1.42,1.71-2.91,3.35-4.53,4.9c-0.11,0.1-0.22,0.2-0.33,0.3    c-0.24,0.23-0.5,0.45-0.74,0.67c-0.63,0.52-1.27,0.98-1.92,1.45l-2.98,1.88c-0.01,0.01-0.02,0.02-0.02,0.03    c-0.28,0.15-0.56,0.3-0.84,0.45c0.8-2.7,1.45-5.36,1.04-8.22c-0.08-0.57,0.8-1.3,1.27-1.93c5.47-7.34,7.1-15.47,4.96-24.34    c-1.05-4.33-3.34-7.58-8.12-8.36c-0.62-0.1-1.2-0.3-1.73-0.6c-1.51-1.94-3.65-2.71-4.38-2.92c-0.3-0.12-0.61-0.24-0.91-0.37    c-4.39-1.15-8.3-0.69-11.19,3.29c-2.04,2.3-2.69,5.13-3.01,8.06c-0.24,2.2-0.93,4.05-2.78,5.47c-2.72,2.09-3.4,5.05-3.08,8.31    c0.15,1.56,0.73,2.45,2.21,2.25c0.77,0.02,2.29,0.06,5.1,0.14c5.04,0.57,13.21,2.19,17.61,6.77c2,2.66,2.97,5.68,1.89,9.12    c-0.53,1.69-1.2,3.26-1.99,4.71c-3.73,1.44-7.74,2.19-12.04,2.19c-13.51,0-25.24,4.85-34.88,14.41    c-9.63,9.57-14.52,21.34-14.52,34.98v2.35c0,0.54-0.18,0.97-0.57,1.36c-0.39,0.39-0.82,0.57-1.36,0.57h-1.4v3.78h72.18h29.95h4.07    v-3.78h-1.4c-0.54,0-0.97-0.18-1.36-0.57c-0.39-0.39-0.57-0.81-0.57-1.35v-2.35c0-9.1,3.26-16.98,9.68-23.4    c6.42-6.42,14.3-9.68,23.4-9.68c9.1,0,16.97,3.26,23.4,9.68c6.42,6.42,9.68,14.3,9.68,23.4v2.35c0,0.54-0.18,0.97-0.57,1.36    c-0.39,0.39-0.88,0.57-1.56,0.57h-1.4v3.78h23.18v-3.78h-1.4c-0.54,0-0.97-0.18-1.36-0.57c-0.39-0.39-0.57-0.81-0.57-1.35v-2.35    c0-8.83-2.24-17.11-6.66-24.61c-4.02-6.82-9.28-12.44-15.66-16.72C537.04,488.15,542.29,482.56,546.32,475.8z M513.34,457.28    c-0.32,2.76-1.51,4.99-3.96,6.78c-2.59-6.22-5.62-11.94-11.96-15.05c5.57,0.53,10.49,2.48,14.9,5.77    C513.22,455.45,513.46,456.23,513.34,457.28z M519.47,432.32c0.69,0.84,0.91,2.33-0.03,3.46c-0.26,0.31-0.57,0.58-0.88,0.84    c-0.39,0.24-0.81,0.48-1.26,0.65c-0.37,0.14-0.76,0.19-1.09,0.24c-0.33,0.06-0.64,0.1-0.92,0.14c-0.14,0-0.28,0.02-0.4,0.03    c-0.12,0-0.23-0.02-0.33-0.01c-0.19-0.01-0.32,0-0.32,0c-0.03-0.01-0.06,0-0.07,0.02c-0.01,0.03-0.01,0.06,0.02,0.07    c0.01-0.02,0.25,0.44,0.96,0.71c0.17,0.07,0.37,0.09,0.58,0.13c0.21,0.04,0.43-0.01,0.66-0.02c0.45-0.11,0.88-0.31,1.27-0.56    c0.44-0.27,0.83-0.57,1.17-0.88c0.52-0.28,1-0.49,0.83,0.82c-0.26,1.96-0.81,3.72-3.04,4.29c-4.43,1.13-8.85,2.25-13.28,3.38    c4.68-0.24,9.17-1.33,13.52-2.95c0.36,0.02,1.19-0.25,0.88,0.38c-0.91,1.86-1.73,3.9-4.24,4.27c-2.49,0.37-4.99,0.57-7.51,0.73    c2.76,0.87,5.49,0.11,8.16-0.15c0.13,0.33,0.26,0.5,0.23,0.62c-0.45,1.56-0.91,3.12-1.38,4.68c-1.48-0.76-2.94-1.56-4.45-2.27    c-4.25-2.02-8.79-2.96-13.3-3.45c3.21-2.86,7.33-4.21,10.93-6.48c3.82-2.4,7.49-5,11.06-7.76    C517.88,432.75,518.63,431.3,519.47,432.32z M513.91,424.58c0.96,0.68,2.07,1.21,0.93,2.65c-0.3,0.38-0.53,0.82-0.75,1.25    c-0.02,0.02-0.03,0.05-0.06,0.07c-0.24,0.27-0.49,0.54-0.74,0.82c-0.23,0.29-0.55,0.52-0.84,0.77c-0.29,0.24-0.59,0.48-0.87,0.71    c-0.31,0.21-0.64,0.38-0.92,0.59c-0.28,0.21-0.55,0.42-0.78,0.65c-0.23,0.24-0.51,0.38-0.72,0.57c-0.91,0.7-1.47,1.4-1.47,1.4    l-0.01,0.01c-0.01,0.02-0.02,0.04-0.02,0.06c0,0.05,0.04,0.08,0.09,0.08c0,0,0.84-0.03,2.04-0.43c0.29-0.11,0.64-0.18,0.93-0.38    c0.31-0.17,0.63-0.39,0.94-0.62c0.31-0.24,0.62-0.49,0.9-0.79c0.26-0.31,0.53-0.63,0.8-0.95c0.27-0.32,0.56-0.61,0.77-0.96    c0.22-0.34,0.44-0.67,0.65-0.99c0.23-0.31,0.37-0.66,0.53-0.97c0.14-0.32,0.31-0.6,0.4-0.9c0.04-0.11,0.07-0.2,0.11-0.3    c0.16-0.11,0.35-0.15,0.59-0.09c1.1,0.27,1.7,1.48,2.19,2.51c0.55,1.15-0.57,1.54-1.19,2.05c-5.97,4.87-12.18,9.39-19.23,12.61    c-1.17,0.54-2.27,1.35-4.07,1.3c7.43-5.62,12.77-12.62,17.28-20.28C512.18,423.7,512.88,423.85,513.91,424.58z M500.1,423.43    c-0.12-2.59,1.79-1.79,3.14-1.94c1.79-0.2,1.8,0.92,1.56,2.18c-0.11,0.59-0.23,1.18-0.35,1.8c-0.11,0.29-0.24,0.57-0.39,0.85    c-0.26,0.52-0.63,0.97-0.94,1.4c-0.13,0.23-0.3,0.42-0.42,0.64c-0.12,0.22-0.26,0.4-0.38,0.59c-0.23,0.39-0.45,0.69-0.59,0.94    c-0.15,0.24-0.22,0.4-0.22,0.4c-0.01,0.01-0.01,0.04-0.01,0.05c0.01,0.04,0.05,0.07,0.09,0.06c0,0,0.17-0.03,0.44-0.13    c0.29-0.08,0.67-0.25,1.07-0.55c0.21-0.14,0.43-0.3,0.62-0.51c0.2-0.2,0.42-0.42,0.58-0.68c0.15-0.27,0.33-0.54,0.44-0.86    c0.12-0.31,0.25-0.61,0.34-0.93c0.41-1.25,0.54-2.54,0.46-3.49c-0.01-0.19-0.03-0.35-0.04-0.51c0.05-0.49,0.2-0.94,0.92-0.94    c1.34,0.01,2.7,0.32,3.76,1.1c0.77,0.57-0.17,1.26-0.49,1.8c-3.67,6.29-7.94,12.11-13.58,16.88c1.65-3.73,3.05-7.5,3.62-11.54    C500.04,427.84,500.2,425.65,500.1,423.43z M497.64,422.57c0.47-0.2,0.72,0.36,0.72,0.84c-0.04,7.65-1.32,14.92-6.66,20.9    c2.7-7.34,2.19-14.6-0.23-21.99C493.56,422.01,495.56,423.44,497.64,422.57z M485.59,425.81c-1.34-2.11,0.96-2.18,1.89-2.87    c0.85-0.63,1.95-1.06,2.46,0.59c1.63,5.23,2.27,10.53,1.17,15.96c-0.01,0.06-0.27,0.06-0.56,0.12    C490.31,434.5,488.29,430.04,485.59,425.81z M439.98,445.38c2.67,6.2,2.36,12.45-0.12,18.68c0.12-7.87-1.62-15.32-5.02-22.65    C437.69,441.66,439.1,443.33,439.98,445.38z M415.77,443.74c0,0.01,0,0.02,0,0.02c0,0,0.74-2.81,3.44-5.48    c1.28-0.79,2.39-0.26,3.69,1.09c4.31,4.43,8,9.23,10.19,15.07c0.18,0.47,0.62,0.92,0.14,1.53c-2.61-2.77-5.39-5.31-8.88-6.93    c-2.16-1.25-4.32-2.49-6.68-3.36C416.77,445.34,415.33,445.3,415.77,443.74z M411.73,460.49c-1.06,0.14-1.54,0.35-2.44-1.21    c-0.97-1.67,1.12-1.63,2.22-1.64c0.83-0.01,1.66,0.02,2.48,0.07c1.95,0.2,5.64,0.7,8.58,1.78c0.13,0.05,0.26,0.1,0.39,0.15    c0.23,0.09,0.46,0.18,0.68,0.28l0-0.01c1.03,0.41,2.04,0.87,2.97,1.49c0.94,0.63,1.86,1.3,2.7,2.21    C423.72,460.89,417.97,459.15,411.73,460.49z M433.16,465.27c-0.39-0.62-0.78-1.24-1.17-1.86c-3.49-3.08-7.31-5.48-12.03-6.13    c-3.22-1.03-6.57-0.94-10.06-0.87c1.02-2.68,2.55-3.97,5.32-3.17c1.9,0.55,3.81,1.06,5.72,1.57c1.21,0.42,2.49,0.92,3.68,1.5    c3.03,1.68,6.01,3.43,7.88,6.59c0.43,0.63,0.85,1.25,1.28,1.88C433.57,464.94,433.36,465.11,433.16,465.27z M434.36,462.03    c-3.06-3.84-6.73-6.56-11.34-7.92c-0.03,0.21-0.06,0.42-0.09,0.64h0c0.03-0.21,0.06-0.42,0.09-0.64c-2.17-1.01-4.5-1.42-6.79-1.99    c-0.74-0.19-2.24,0.48-2.04-1.18c0.06-0.48,0.23-0.83,0.47-1.07c0.33,0,0.68,0.01,1.06,0.04c0.24,0.02,0.49,0.05,0.74,0.09    c0.25,0.02,0.49,0.1,0.73,0.15c0.24,0.06,0.47,0.16,0.68,0.25c0.2,0.13,0.41,0.2,0.6,0.31c0.18,0.1,0.39,0.15,0.56,0.24    c0.17,0.09,0.37,0.13,0.52,0.22c0.15,0.09,0.32,0.15,0.47,0.22c0.14,0.07,0.26,0.15,0.37,0.2c0.22,0.11,0.38,0.17,0.38,0.17    l0.01,0c0.01,0,0.02,0.01,0.03,0.01c0.05,0,0.1-0.04,0.1-0.09c0,0,0-0.16-0.05-0.43c-0.03-0.14-0.07-0.3-0.13-0.48    c-0.09-0.17-0.19-0.36-0.32-0.56c-0.12-0.21-0.32-0.38-0.52-0.57c-0.2-0.2-0.46-0.32-0.72-0.46c-0.27-0.13-0.57-0.17-0.87-0.23    c-0.3-0.03-0.6-0.06-0.9-0.08c-0.55-0.02-1.08,0-1.58,0.08c-0.13-0.02-0.26-0.04-0.36-0.1c-0.92-0.53-0.29-1.25-0.18-1.85    c0.18-0.98,0.81-0.63,1.39-0.36c2.36,1.14,4.73,2.27,7.09,3.41c3.56,2.72,7.31,5.23,9.61,9.24    C433.81,460.09,434.61,460.77,434.36,462.03z M423.12,436.83c4.22,1.03,8.53,1.48,10.53,6.41c2.76,6.81,4.6,14.58,3.83,19.59    C435.49,452.18,430.51,443.86,423.12,436.83z M502.42,376.14c1.7,2.57,3.36,5.11,3.7,8.31c0.16,1.47-0.24,2.3-1.72,2.32    c-9.44,0.12-16.6,4.88-22.99,11.23c-0.31,0.31-0.67,0.57-1.01,0.83c-0.05,0.04-0.17-0.01-0.67-0.05    c5.37-8.75,11.76-16.32,19.33-22.92C500.4,374.68,501.35,374.53,502.42,376.14z M489.76,367.24c2.93,1.65,5.93,3.18,8.66,5.18    c1.13,0.83,1.09,1.27,0.05,2.13c-7.92,6.55-14.4,14.37-19.99,22.96c-0.25,0.42-0.48,1.31-0.93,0.98    c-0.71-0.51,0.22-1.05,0.42-1.58c3.56-9.35,6.76-18.82,9.23-28.53C487.64,366.62,488.39,366.46,489.76,367.24z M475.32,358.72    c3.22,0.43,4.14,0.74,4.83,4.89c0.03,0.25,0.05,0.49,0.07,0.76c0.04,0.74,0.04,1.52-0.06,2.29c-0.03,0.39-0.13,0.77-0.2,1.14    c-0.08,0.37-0.21,0.72-0.27,1.07c-0.06,0.35-0.17,0.68-0.21,1.01c-0.04,0.33-0.13,0.63-0.18,0.92c-0.07,0.29-0.08,0.57-0.14,0.81    c-0.05,0.24-0.09,0.46-0.11,0.64c-0.05,0.36-0.06,0.59-0.06,0.59l0,0.01c0,0.02,0.01,0.04,0.02,0.06    c0.03,0.04,0.08,0.04,0.12,0.01c0,0,0.17-0.14,0.43-0.41c0.13-0.14,0.29-0.31,0.45-0.51c0.18-0.2,0.32-0.46,0.49-0.73    c0.16-0.28,0.35-0.58,0.47-0.93c0.14-0.34,0.28-0.71,0.35-1.11c0.06-0.4,0.13-0.81,0.13-1.24c-0.01-0.43,0.03-0.85-0.01-1.28    c-0.02-0.85-0.14-1.7-0.3-2.47c-0.01-0.03-0.02-0.06-0.02-0.09c-0.04-0.81-0.1-1.68-0.15-2.7c1.71,1.4,3.12,2.57,4.55,3.72    c0.63,0.5,0.41,1.11,0.26,1.7c-3.11,11.99-6.84,23.76-11.94,35.06v-0.3h-1.23C475.61,387.46,476.47,373.17,475.32,358.72z     M464.69,355.78c0.12,0.21,0.23,0.45,0.36,0.69c0.13,0.31,0.3,0.61,0.43,0.95c0.14,0.33,0.27,0.68,0.38,1.04    c0.13,0.35,0.21,0.73,0.31,1.09c0.09,0.37,0.14,0.75,0.2,1.11c0.04,0.37,0.07,0.74,0.13,1.08c0.06,0.35,0.1,0.68,0.18,1    c0.08,0.32,0.11,0.62,0.19,0.91c0.06,0.28,0.15,0.55,0.19,0.78c0.05,0.24,0.1,0.44,0.16,0.62c0.1,0.35,0.19,0.55,0.19,0.55l0,0.01    c0.01,0.02,0.02,0.03,0.04,0.04c0.04,0.02,0.1,0.01,0.12-0.04c0,0,0.1-0.19,0.23-0.54c0.07-0.17,0.14-0.39,0.21-0.63    c0.08-0.25,0.12-0.53,0.16-0.84c0.04-0.31,0.1-0.65,0.08-1.01c0-0.36-0.02-0.74-0.08-1.12c-0.08-0.38-0.18-0.78-0.32-1.16    c-0.16-0.38-0.27-0.78-0.44-1.16c-0.17-0.38-0.32-0.76-0.51-1.12c-0.18-0.36-0.37-0.71-0.58-1.04c-0.19-0.33-0.4-0.63-0.6-0.91    c0.06,0,0.12,0,0.18,0.01c2.08-1.06,3.89,0.84,5.9,0.53v0c1.46,0.44,1.58,1.67,1.67,2.89c1.11,14.17,0.24,28.2-2.7,42.09h-1.49    c0.76-16.01-1.94-31.31-10.6-45.53C460.74,355.89,462.7,355.08,464.69,355.78z M447.02,362.83c1.85-1.72,3.74-3.35,5.95-4.59    c3.41-1.91,3.82-1.83,5.75,1.49c3.81,6.59,5.99,13.76,7.42,21.19c1.31,6.84,1.57,13.75,1.47,20.68h-1.13    c-2.81-13.36-9.41-24.7-19.32-34.2C445.28,365.63,445.19,364.54,447.02,362.83z M441.88,373.64c0.4-0.33,0.82-0.1,1.21,0.14    c0.61,0.37,1.23,0.73,1.96,1.16c0.25,0.19,0.5,0.39,0.74,0.61c0.29,0.24,0.55,0.53,0.82,0.79c0.26,0.27,0.5,0.58,0.73,0.86    c0.22,0.3,0.43,0.6,0.65,0.87c0.22,0.27,0.43,0.54,0.66,0.77c0.23,0.23,0.41,0.48,0.62,0.69c0.19,0.22,0.4,0.4,0.55,0.58    c0.16,0.18,0.31,0.33,0.44,0.46c0.26,0.25,0.44,0.39,0.44,0.39l0,0c0.02,0.01,0.04,0.02,0.06,0.02c0.05,0,0.09-0.04,0.09-0.09    c0,0-0.01-0.22-0.07-0.58c-0.03-0.18-0.08-0.4-0.14-0.65c-0.06-0.25-0.16-0.52-0.28-0.81c-0.12-0.29-0.24-0.61-0.44-0.91    c-0.18-0.31-0.39-0.63-0.63-0.93c-0.26-0.29-0.55-0.58-0.86-0.85c-0.33-0.25-0.63-0.54-0.96-0.78c-0.34-0.24-0.66-0.5-1-0.71    c-0.34-0.23-0.68-0.43-1.02-0.61c-0.67-0.38-1.33-0.65-1.91-0.85c-0.03-0.01-0.06-0.02-0.09-0.03c-1.12-0.56-1.5-1.31-1.03-2.47    c0.49-1.2,0.57-3.01,1.76-3.36c1.1-0.33,1.94,1.24,2.78,2.1c8.89,9.08,14.77,19.82,17.71,32.15h-1.1c-0.96-3.36-3.3-5.89-5.5-8.45    c-4.46-5.2-9.73-9.49-15.54-13.11C441.53,379.43,441.02,374.34,441.88,373.64z M435.68,396.06c-2.93-0.7-4.35-4.51-2.54-6.88    c1.1-1.44,2.19,0.66,3.32,0.14c0.42-0.69-0.02-1.02-0.56-1.14c-2.77-0.57-1.82-2.08-0.69-3.29c0.88-0.93,1.69-1.91,2.52-2.88    c1.32-1.54,2.51-1.78,4.42-0.47c8,5.45,14.99,11.75,19.8,20.06h-3.58c-5.37-5.01-12.08-8.3-18.36-11.88    c-0.19-0.11-0.49,0.06-0.83,0.11c0.23,1.3,1.4,1.27,2.18,1.64c5.62,4.36,10.52,6.63,14.71,10.13h-4.44    c-2.72-1.6-5.61-2.91-8.7-3.87C440.56,397,438.09,396.63,435.68,396.06z M454.19,525.5h-65.76c1.1-4.33,3.02-8.31,5.73-11.85    c3.05-3.99,6.91-7.18,11.47-9.49c4.55-2.31,9.51-3.48,14.74-3.48c13.02,0,24.39-4.55,33.82-13.49V525.5z"
   id="path30" />
		<path
   class="st0"
   d="M487.63,380.26c0.14-0.05,0.3-0.11,0.48-0.19c0.19-0.08,0.37-0.2,0.57-0.33c0.2-0.14,0.43-0.28,0.62-0.47    c0.2-0.19,0.4-0.4,0.58-0.64c0.35-0.5,0.58-1.11,0.83-1.69c0.24-0.59,0.46-1.18,0.57-1.76c0.14-0.57,0.2-1.12,0.23-1.58    c0.06-0.93-0.05-1.54-0.05-1.54c-0.01-0.03-0.03-0.06-0.07-0.07c-0.04-0.01-0.09,0.03-0.09,0.07c0,0-0.08,0.59-0.35,1.43    c-0.14,0.42-0.33,0.89-0.56,1.38c-0.23,0.49-0.51,0.99-0.82,1.47c-0.31,0.48-0.73,0.87-1.04,1.29c-0.16,0.21-0.31,0.41-0.43,0.62    c-0.12,0.21-0.25,0.4-0.36,0.6c-0.11,0.19-0.19,0.38-0.29,0.54c-0.09,0.16-0.16,0.31-0.22,0.44c-0.11,0.26-0.17,0.43-0.17,0.43    l0,0.01c0,0.01,0,0.03,0,0.04c0.01,0.05,0.06,0.09,0.11,0.08C487.18,380.38,487.35,380.35,487.63,380.26z"
   id="path32" />
	</g>
	<g
   id="g54">
		<path
   class="st0"
   d="M768.38,616.57c-3.34-2.98-7.66-4.17-12.77-3.51c-5.44,0.7-10.6,4.1-14.93,9.82    c-3.22,4.26-5.89,9.62-7.94,15.94c1.28-11.8,3.08-19.66,3.47-20.76c0.33-0.93-0.16-1.95-1.09-2.27c-0.19-0.07-0.39-0.1-0.59-0.1    c-0.76,0-1.43,0.48-1.68,1.19c-0.64,1.83-2.69,11.4-3.93,24.26c-0.77,7.92-1.11,15.85-1.03,23.56c-0.8-0.33-1.44-0.7-1.9-1.1    c-0.47-0.4-0.68-0.75-0.6-1.03c0.25-0.95-0.31-1.93-1.27-2.18c-0.15-0.04-0.3-0.06-0.46-0.06c-0.8,0-1.51,0.54-1.72,1.32    c-0.26,0.97-0.38,2.88,1.74,4.67c1.03,0.87,2.47,1.61,4.28,2.2c0.21,7.12,0.81,13.98,1.77,20.41l0,0.04    c0.13,0.87,0.89,1.52,1.76,1.52c0.09,0,0.18-0.01,0.27-0.02c0.47-0.07,0.89-0.32,1.17-0.7c0.28-0.38,0.4-0.85,0.33-1.35    c-0.95-6.37-1.43-12.76-1.42-18.99c1.58,0.25,3.28,0.4,5.04,0.44c0.31,0.01,0.62,0.01,0.93,0.01c6.09,0,12.37-1.32,17.67-3.73    c5.71-2.59,10.27-6.33,13.57-11.12c3.84-5.57,5.86-12.45,5.99-20.45c0.05-3.02-0.41-6.26-1.3-9.14    C772.58,621.69,770.78,618.71,768.38,616.57z M737.8,666.3c-0.28,0-0.57,0-0.85-0.01c-1.77-0.04-3.47-0.2-5.05-0.48    c0.17-5.14,0.67-10.13,1.51-14.84c1.91-10.73,5.4-19.7,10.12-25.94c3.73-4.94,8.07-7.86,12.54-8.43c4.05-0.53,7.41,0.37,9.94,2.63    c4.16,3.72,5.55,10.57,5.47,15.29c-0.29,17.04-9.66,24.84-17.47,28.38C749.16,665.09,743.4,666.3,737.8,666.3z"
   id="path36" />
		<path
   class="st0"
   d="M870.68,650.8c0.14,0.04,0.29,0.06,0.44,0.06c0.69,0,1.3-0.46,1.5-1.12c0.04-0.13,0.08-0.26,0.11-0.38    c0.23-0.8,0.32-1.1,0.53-1.32c0.57-0.65,0.5-1.64-0.15-2.21c-0.28-0.25-0.65-0.38-1.02-0.38c-0.45,0-0.88,0.2-1.18,0.53    c-0.66,0.76-0.89,1.53-1.17,2.51c-0.03,0.11-0.07,0.24-0.11,0.37c-0.12,0.4-0.07,0.82,0.13,1.19    C869.95,650.42,870.28,650.68,870.68,650.8z"
   id="path38" />
		<path
   class="st0"
   d="M936.63,653.81c-0.25,0-0.49,0.06-0.71,0.17c-2.52,1.3-5.44,2.84-8.22,4.7c-0.06-0.17-0.13-0.32-0.19-0.47    c-0.78-1.76-1.88-2.84-3.29-3.22c-0.42-0.12-0.87-0.16-1.31-0.15c0.37-1.05,0.64-2.51,0.04-3.82c-0.62-1.34-2-2.06-3.75-1.96    c-2.71,0.17-5.47,1.57-7.77,3.93c-0.1,0.1-0.17,0.21-0.26,0.31c-0.43,0.02-0.84,0.2-1.12,0.54l-0.55,0.66    c-1.57,1.88-3.73,4.46-5.55,4.46c-0.14,0-0.28-0.02-0.41-0.05c-0.86-0.2-1.05-0.61-1.44-2.15c-0.39-1.55-0.92-3.68-3.52-4.56    c-1.83-0.62-3.84-0.08-5.92,1.61c-1.55,1.25-2.96,2.96-4.11,4.35l-0.06,0.08c-0.22,0.26-0.45,0.55-0.69,0.82    c0.01-1.09,0.27-2.54,0.76-4.33c0.23-0.83-0.26-1.69-1.09-1.92c-0.14-0.04-0.28-0.06-0.41-0.06c-0.57,0-1.07,0.32-1.34,0.8    c-0.05,0-0.09-0.04-0.13-0.04c-0.55,0-1.04,0.28-1.33,0.74c-2.78,4.51-6.4,6.16-8.65,6.21c-0.04,0-0.09,0-0.13,0    c-0.7,0-2-0.14-2.77-1.05c-0.79-0.93-0.98-2.59-0.55-4.8c0.08-0.41-0.01-0.83-0.24-1.17c-0.23-0.35-0.59-0.58-1-0.65    c-0.1-0.02-0.2-0.03-0.3-0.03c-0.47,0-0.89,0.23-1.18,0.58c-0.35,0.06-0.68,0.21-0.92,0.49l-0.55,0.66    c-1.57,1.88-3.73,4.46-5.55,4.46c-0.14,0-0.28-0.02-0.41-0.05c-0.86-0.2-1.05-0.61-1.44-2.15c-0.39-1.55-0.92-3.68-3.52-4.56    c-1.83-0.62-3.84-0.08-5.92,1.61c-1.55,1.25-2.96,2.96-4.11,4.35l-0.06,0.08c-0.22,0.26-0.45,0.55-0.69,0.82    c0.01-1.09,0.27-2.54,0.76-4.33c0.23-0.83-0.26-1.69-1.09-1.92c-0.14-0.04-0.28-0.06-0.41-0.06c-0.45,0-0.86,0.21-1.15,0.53    c0,0,0,0-0.01,0c-0.46,0-0.89,0.2-1.19,0.55l-0.55,0.66c-1.57,1.88-3.73,4.46-5.55,4.46c-0.14,0-0.28-0.02-0.41-0.05    c-0.86-0.2-1.05-0.61-1.44-2.15c-0.39-1.55-0.92-3.68-3.52-4.56c-1.83-0.62-3.84-0.08-5.92,1.61c-1.55,1.25-2.96,2.96-4.11,4.35    l-0.06,0.08c-0.22,0.26-0.45,0.55-0.69,0.82c0.01-1.09,0.27-2.54,0.76-4.33c0.23-0.83-0.26-1.69-1.09-1.92    c-0.14-0.04-0.28-0.06-0.41-0.06c-0.48,0-0.91,0.23-1.2,0.59c-0.71,0-1.33,0.48-1.51,1.17c-0.43,1.64-1.37,3.07-2.64,4.01    c-0.92,0.68-1.97,1.07-2.9,1.07c-0.16,0-0.32-0.01-0.47-0.04c-0.9-0.14-2.38-0.86-2.21-4.13c0.01-0.16-0.01-0.32-0.05-0.48    c0.04,0,0.09-0.01,0.13-0.02c0.41-0.08,0.76-0.32,0.99-0.67c0.23-0.35,0.31-0.77,0.23-1.17c-0.41-1.98-2.13-3.26-4.4-3.26    c-0.06,0-0.11,0-0.16,0c-2.51,0.06-5.91,1.16-8.28,3.33c-0.26,0.11-0.5,0.28-0.67,0.52c-2.6,3.77-5.72,7.62-9.21,7.62    c-0.35,0-0.7-0.04-1.05-0.12c-1.45-0.33-3.39-1.64-4.49-6.03c4.82-5.24,10.89-15.67,13.2-25.52c0.25-1.08,0.86-3.9,1.06-6.9    c0.21-3.24-0.12-5.51-1.03-6.95c-0.56-0.9-1.36-1.48-2.31-1.69c-0.3-0.07-0.61-0.1-0.92-0.1c-1.5,0-2.79,0.79-3.61,1.46    c-2.64,2.13-5.27,6.75-7.23,12.66c-2.04,6.16-3.13,13.02-3.09,19.33c0.06,9.85,2.74,15.66,7.73,16.8c0.58,0.13,1.17,0.2,1.74,0.2    c2.15,0,4.32-0.91,6.44-2.7c0.38-0.32,0.73-0.68,1.09-1.03c0.18,0.37,0.4,0.74,0.69,1.06c0.85,0.96,2.07,1.54,3.25,1.54h0.05    c2.13-0.03,4.42-1.27,6.81-3.68c0.17-0.18,0.34-0.35,0.5-0.53c0.77,1.95,2.33,3.24,4.32,3.55c2.17,0.33,4.84-0.57,6.87-2.63    c0.11,1.12,0.45,1.99,1.03,2.62c0.36,0.39,0.85,0.6,1.38,0.6h0.06h0c1.24-0.04,2.13-1.12,3.75-3.08c1.57-1.9,4.19-5.07,6.12-5.07    c0.18,0,0.35,0.03,0.5,0.08c0.91,0.31,1.12,0.86,1.49,2.36c0.38,1.51,0.94,3.78,3.76,4.44c0.38,0.09,0.76,0.13,1.14,0.13    c2.33,0,4.37-1.66,6.07-3.47c-0.09,1.83,0.25,3.15,1.06,4.01c0.36,0.39,0.85,0.6,1.38,0.6h0.06h0c1.24-0.04,2.13-1.12,3.75-3.08    c1.57-1.9,4.19-5.07,6.12-5.07c0.18,0,0.34,0.03,0.5,0.08c0.91,0.31,1.12,0.86,1.49,2.36c0.38,1.51,0.94,3.78,3.76,4.44    c0.38,0.09,0.76,0.13,1.14,0.13c2.53,0,4.71-1.95,6.49-3.92c0.2,1.29,0.65,2.39,1.39,3.27c1.17,1.39,3,2.15,5.15,2.15    c0.07,0,0.14,0,0.21,0c1.78-0.04,3.78-0.7,5.63-1.87c1.21-0.76,2.35-1.75,3.39-2.9c-0.06,1.73,0.29,2.99,1.07,3.82    c0.36,0.39,0.85,0.6,1.38,0.6h0.06h0c1.24-0.04,2.13-1.12,3.75-3.08c1.57-1.9,4.19-5.07,6.12-5.07c0.18,0,0.35,0.03,0.5,0.08    c0.91,0.31,1.12,0.86,1.49,2.36c0.38,1.51,0.94,3.78,3.76,4.44c0.38,0.09,0.76,0.13,1.14,0.13c1.49,0,2.87-0.7,4.11-1.66    c0.22,1.75,1.37,2.99,3.24,3.24c0.17,0.02,0.35,0.03,0.53,0.03c2.03,0,4.08-1.49,6.27-3.06c1.66-1.2,3.71-2.68,4.97-2.68    c0.12,0,0.23,0.01,0.32,0.04c0.45,0.12,0.87,0.62,1.25,1.47c0.14,0.32,0.28,0.7,0.4,1.13c-0.11,0.09-0.22,0.17-0.33,0.26    c-4.17,3.36-7.15,7.21-9.08,11.77c-2.69,6.33-2.95,14.7-0.57,18.67c1.1,1.83,2.49,2.31,3.47,2.4c0.13,0.01,0.27,0.02,0.41,0.02    c1.25,0,3.12-0.52,4.89-2.98c1.1-1.53,3.76-6.19,4.8-16.42c0.22-2.17,0.65-7.7-0.11-12.39c2.81-1.98,5.9-3.65,8.83-5.16    c0.76-0.39,1.07-1.34,0.67-2.1C937.75,654.13,937.22,653.81,936.63,653.81z M925.52,673.99c-0.67,6.58-2.25,12.16-4.23,14.92    c-0.8,1.11-1.59,1.68-2.35,1.68c-0.05,0-0.09,0-0.14-0.01c-0.37-0.03-0.73-0.33-1.07-0.9c-1.65-2.76-1.74-9.94,0.77-15.84    c1.58-3.72,3.92-6.89,7.15-9.7C925.93,666.97,925.88,670.45,925.52,673.99z M918.44,656.22c-0.17,0.18-0.3,0.4-0.37,0.64    c-0.58,0.39-1.15,0.8-1.71,1.21l-0.07,0.05c-1.53,1.1-3.42,2.47-4.43,2.47c-0.04,0-0.08,0-0.12-0.01    c-0.54-0.07-0.65-0.21-0.63-0.76c0.08-2.41,3.89-7.35,8.3-7.64c0.06,0,0.12-0.01,0.18-0.01c0.29,0,0.49,0.06,0.53,0.15    C920.38,652.91,919.85,654.77,918.44,656.22z M806.12,652.96C806.12,652.96,806.13,652.96,806.12,652.96    c0.55,0,1.22,0.13,1.35,0.77c0.01,0.03,0.01,0.05,0.02,0.08c-0.45,0.05-0.86,0.3-1.11,0.68c-0.99,1.47-4.42,5.67-7.1,5.7    c-0.23,0-0.62-0.15-0.92-0.49c-0.19-0.21-0.4-0.57-0.34-1.05c0.47-3.54,5.04-5.61,8.03-5.69    C806.08,652.96,806.1,652.96,806.12,652.96z M792.43,628.92c-1.31,5.57-3.74,10.72-5.55,14.06c-1.65,3.04-3.46,5.84-5.26,8.12    c-0.1-1.13-0.16-2.37-0.17-3.68c-0.04-5.98,1-12.48,2.94-18.33c1.75-5.28,4.07-9.47,6.22-11.21c0.43-0.35,1.07-0.76,1.66-0.76    c0.08,0,0.17,0.01,0.24,0.02c0.05,0.01,0.18,0.04,0.34,0.3C793.68,618.76,793.8,623.12,792.43,628.92z"
   id="path40" />
		<path
   class="st0"
   d="M971.23,657.05c-0.46-0.14-0.94-0.22-1.42-0.22c-2.42,0-4.4,1.75-4.83,4.27c-0.47,2.83,0.37,5.08,2.27,6.02    c0.45,0.22,0.93,0.33,1.45,0.33c2.22,0,4.16-2.05,4.94-4.07c0.61-1.59,0.62-3.06,0.04-4.27    C973.19,658.13,972.33,657.39,971.23,657.05z"
   id="path42" />
		<path
   class="st0"
   d="M1043.15,631.65c-9.8,0-14.34,1.3-19.6,2.8c-0.65,0.18-1.32,0.38-2.01,0.57c0.05-0.53,0.11-1.06,0.16-1.61    c1.13-10.75,2.61-19.85,3.21-23.35c2.24-0.33,4.62-0.67,7.08-1c8.19-1.09,15.54-1.84,21.25-2.17c4.08-0.23,7.26-0.24,9.24-0.02    c-0.54,0.57-0.64,1.45-0.23,2.14c0.32,0.54,0.9,0.86,1.53,0.86c0.32,0,0.64-0.09,0.92-0.26c1.3-0.78,2.76-1.89,2.6-3.52    c-0.08-0.73-0.5-1.72-2.11-2.29c-0.56-0.2-1.87-0.66-6.37-0.66c-2.08,0-4.61,0.1-7.52,0.3c-5.98,0.41-13.47,1.22-21.65,2.34    c-1.33,0.18-2.7,0.37-4.07,0.58c0.2-1.02,0.36-1.79,0.47-2.26c0.23-0.96-0.36-1.92-1.31-2.15c-0.14-0.03-0.28-0.05-0.42-0.05    c-0.83,0-1.54,0.56-1.73,1.36c-0.18,0.76-0.44,2.03-0.74,3.66c-4.7,0.73-9.15,1.5-12.85,2.23c-9.82,1.94-10.71,2.84-11.19,3.32    c-0.39,0.39-0.58,0.96-0.5,1.52c0.08,0.55,0.42,1.04,0.91,1.3c0.61,0.33,1.37,0.48,2.4,0.48c1.28,0,2.92-0.24,4.93-0.56    c1.9-0.3,3.86-0.62,5.42-0.62c0.09,0,0.17,0,0.26,0h0.04c0.96,0,1.76-0.78,1.78-1.74c0.01-0.28-0.05-0.56-0.17-0.81    c2.54-0.47,5.34-0.94,8.32-1.41c-0.58,3.5-1.99,12.35-3.05,22.41c-0.11,1.05-0.21,2.08-0.31,3.09c-0.24,0.08-0.48,0.16-0.71,0.24    c-4.04,1.37-6.83,2.71-8.46,3.59c-3.36,1.82-3.75,2.71-3.9,3.05c-0.31,0.71-0.19,1.5,0.31,2.06c0.38,0.42,0.87,0.63,1.47,0.63    c0.5,0,0.95-0.15,1.2-0.23c3.17-1.06,5.93-1.2,8.13-0.39c0.42,0.16,0.83,0.35,1.22,0.58c-0.62,10.9-0.13,18.53,1.47,22.68    c0.43,1.11,0.9,1.91,1.44,2.44c0.58,0.58,1.27,0.88,1.99,0.88c0.3,0,0.61-0.05,0.89-0.16c2.49-0.91,3.27-5.56,3.51-8.25    c0.39-4.37-0.12-8.97-1.39-12.61c-0.99-2.83-2.41-5.08-4.22-6.69c0.1-1.61,0.24-3.33,0.39-5.12c0.71-0.21,1.4-0.42,2.08-0.63    c5.01-1.53,9.74-2.98,19.88-2.98c0.98,0,1.78-0.8,1.78-1.78C1044.93,632.45,1044.13,631.65,1043.15,631.65z M1022.97,660.88    c-0.06,3.48-0.67,5.57-0.98,6.4c-0.03-0.07-0.06-0.14-0.09-0.22c-1.21-3.15-1.69-9.29-1.38-17.77    C1022.16,652.19,1023.05,656.41,1022.97,660.88z M1017.51,640.01c-0.05,0.61-0.1,1.22-0.14,1.81c-0.87-0.34-1.78-0.58-2.74-0.71    C1015.56,640.73,1016.53,640.36,1017.51,640.01z"
   id="path44" />
		<path
   class="st0"
   d="M1161.64,653.3c-0.08,0-0.16,0.01-0.25,0.02c-2.97,0.47-7.4,1.84-11.57,3.58c-0.74-0.37-1.54-0.65-2.27-0.92    c-1.25-0.45-1.89-0.75-2.24-0.98c0.06-0.23,0.09-0.46,0.05-0.7c-0.03-0.14-0.09-0.27-0.16-0.39c0.58-0.82,2.01-1.73,2.54-2.07    c0.72-0.46,0.94-1.43,0.48-2.15c-0.29-0.45-0.78-0.72-1.32-0.72c-0.3,0-0.58,0.08-0.83,0.24c-1.92,1.22-3.75,2.6-4.16,4.53    c-0.06,0.3-0.1,0.63-0.09,0.99c-2.45,3.41-5.31,6.6-8.48,6.6c-0.35,0-0.7-0.04-1.05-0.12c-1.45-0.33-3.39-1.64-4.49-6.03    c4.82-5.24,10.89-15.68,13.2-25.52c0.25-1.07,0.86-3.89,1.06-6.9c0.21-3.24-0.13-5.51-1.03-6.95c-0.56-0.9-1.36-1.48-2.31-1.69    c-0.3-0.07-0.61-0.1-0.92-0.1c-1.5,0-2.79,0.79-3.61,1.46c-2.64,2.13-5.27,6.75-7.23,12.66c-2.03,6.16-3.13,13.02-3.09,19.33    c0.02,2.42,0.19,4.59,0.52,6.51c-0.13,0.17-0.24,0.35-0.3,0.57c-0.43,1.64-1.36,3.07-2.64,4.01c-0.91,0.68-1.97,1.07-2.9,1.07    c-0.16,0-0.32-0.01-0.47-0.04c-0.9-0.14-2.38-0.86-2.21-4.13c0.01-0.16-0.01-0.32-0.05-0.47c0.04,0,0.09-0.01,0.13-0.02    c0.84-0.17,1.39-1,1.22-1.84c-0.41-1.98-2.14-3.26-4.4-3.26c-0.05,0-0.11,0-0.16,0c-2.4,0.06-5.6,1.09-7.95,3.07    c-0.03,0-0.05-0.02-0.07-0.02c-0.35,0-0.7,0.12-0.97,0.34c-1.28,1.02-3.63,2.72-5.05,2.72c-0.14,0-0.27-0.02-0.38-0.05    c-0.84-0.25-1.36-1.81-1.86-3.33c-0.72-2.16-1.61-4.86-4.33-5.04c-0.09-0.01-0.17-0.01-0.26-0.01c-2.04,0-3.84,1.64-5.48,5    c0,0,0-0.01,0-0.01c0.15-0.85-0.42-1.66-1.27-1.8c-0.09-0.02-0.18-0.02-0.27-0.02c-0.76,0-1.4,0.55-1.54,1.29    c-0.17,0.99-0.32,2.02-0.45,3.1c-1.76,0.94-3.63,1.22-5.59,0.73c-0.61-0.15-1.22-0.37-1.81-0.65c-0.06-0.51-0.16-1.01-0.31-1.49    c-0.73-2.3-2.67-3.41-4.24-3.68c-1.06-0.18-1.88,0-2.38,0.54c-0.39-0.06-0.79,0.02-1.12,0.23c-1.28,0.83-2.19,1.89-2.79,3.03    c-2.58,3.73-5.68,7.51-9.13,7.51c-0.35,0-0.7-0.04-1.05-0.12c-1.44-0.33-3.39-1.64-4.49-6.03c4.82-5.24,10.89-15.68,13.2-25.52    c0.25-1.07,0.86-3.89,1.06-6.9c0.21-3.24-0.13-5.51-1.03-6.95c-0.56-0.9-1.36-1.48-2.31-1.69c-0.3-0.07-0.61-0.1-0.92-0.1    c-1.5,0-2.79,0.79-3.61,1.46c-2.64,2.13-5.27,6.75-7.23,12.66c-2.03,6.16-3.13,13.02-3.09,19.33c0.06,9.85,2.74,15.66,7.74,16.8    c0.58,0.13,1.16,0.2,1.74,0.2c2.16,0,4.32-0.91,6.44-2.7c0.72-0.61,1.38-1.29,2.02-1.99c0.03,0.1,0.04,0.2,0.07,0.29    c0.76,2.51,2.66,4.14,4.83,4.14c0.02,0,0.05,0,0.06,0c1.91-0.02,3.65-1,4.9-2.74c0.63-0.87,1.11-1.9,1.39-2.98    c0.44,0.16,0.89,0.3,1.32,0.4c0.89,0.22,1.79,0.33,2.68,0.33c1.17,0,2.31-0.2,3.41-0.57c-0.05,1.78,0,3.68,0.28,5.81    c0.1,0.77,0.76,1.35,1.54,1.36h0.01c0.77,0,1.44-0.58,1.55-1.34c0.23-1.66,1.12-5.42,2.34-8.55c1.4-3.61,2.79-5.23,3.55-5.23h0.03    c0.62,0.04,1.15,1.63,1.57,2.92c0.72,2.17,1.53,4.62,3.93,5.33c0.39,0.12,0.81,0.18,1.24,0.18c0.92,0,1.92-0.27,3.04-0.8    c-0.16,1.27,0.23,2.51,1.1,3.49c0.85,0.96,2.07,1.54,3.25,1.54h0.05c2.13-0.03,4.42-1.27,6.81-3.68c0.18-0.18,0.34-0.35,0.51-0.53    c0.76,1.95,2.33,3.24,4.32,3.55c0.3,0.05,0.61,0.07,0.92,0.07c2.47,0,5.33-1.42,7.15-4.18c1.3,3.14,3.28,5.09,5.93,5.7    c0.58,0.13,1.16,0.2,1.74,0.2c2.16,0,4.32-0.91,6.44-2.7c1.43-1.21,2.69-2.69,3.8-4.16c0.68,0.46,1.49,0.81,2.3,1.11    c-1.42,0.71-2.65,1.41-3.66,2.09c-2.01,1.34-3.1,2.52-3.44,3.72c-0.3,1.07,0.02,2.07,0.85,2.69c0.57,0.43,1.38,0.64,2.39,0.64    c0.75,0,1.63-0.12,2.6-0.35c1.86-0.45,3.86-1.27,5.34-2.2c2.91-1.83,3.24-3.61,3.01-4.78c-0.09-0.46-0.25-0.9-0.48-1.31    c3.52-1.37,7.02-2.41,9.38-2.78c0.41-0.07,0.77-0.29,1.02-0.62c0.25-0.34,0.35-0.75,0.28-1.16    C1163.06,653.86,1162.41,653.3,1161.64,653.3z M1149.91,661.08c0,0.08-0.17,0.48-0.93,1.08c-1.96,1.53-5.08,2.44-6.72,2.54    c0.69-0.69,2.55-2.18,7.2-4.26c0.02-0.01,0.04-0.02,0.07-0.03C1149.75,660.63,1149.87,660.85,1149.91,661.08z M1138.39,617.45    c0.82,1.31,0.94,5.68-0.42,11.48c-1.31,5.57-3.74,10.72-5.55,14.06c-1.64,3.03-3.45,5.83-5.26,8.12c-0.1-1.13-0.16-2.37-0.17-3.68    c-0.04-5.98,1-12.49,2.94-18.33c1.75-5.28,4.07-9.47,6.22-11.21c0.43-0.35,1.07-0.76,1.66-0.76c0.08,0,0.16,0.01,0.24,0.02    C1138.1,617.16,1138.22,617.18,1138.39,617.45z M1112.75,652.96C1112.75,652.96,1112.76,652.96,1112.75,652.96    c0.55,0,1.22,0.13,1.36,0.77c0.01,0.03,0.01,0.05,0.02,0.08c-0.45,0.05-0.86,0.3-1.11,0.68c-0.99,1.47-4.42,5.67-7.1,5.7    c-0.24,0-0.62-0.15-0.92-0.49c-0.19-0.21-0.4-0.57-0.34-1.05c0.47-3.54,5.04-5.61,8.03-5.69    C1112.71,652.96,1112.73,652.96,1112.75,652.96z M1072.19,656.96c-0.14,0.97-0.51,1.91-1.04,2.65c-0.47,0.65-1.27,1.43-2.43,1.45    c-0.58,0-1.42-0.51-1.85-1.93c-0.53-1.74-0.14-4.12,1.87-5.57C1069.59,654.82,1070.81,656.02,1072.19,656.96z M1059.98,628.92    c-1.31,5.57-3.74,10.72-5.55,14.06c-1.64,3.03-3.45,5.83-5.26,8.12c-0.1-1.13-0.16-2.37-0.17-3.68c-0.04-5.98,1-12.49,2.94-18.33    c1.75-5.28,4.07-9.47,6.22-11.21c0.43-0.35,1.07-0.76,1.66-0.76c0.08,0,0.16,0.01,0.24,0.02c0.05,0.01,0.18,0.04,0.34,0.3    C1061.22,618.76,1061.34,623.12,1059.98,628.92z"
   id="path46" />
		<path
   class="st0"
   d="M1196.16,657.05c-0.46-0.14-0.94-0.22-1.42-0.22c-2.42,0-4.4,1.75-4.83,4.27c-0.48,2.83,0.37,5.08,2.27,6.03    c0.44,0.22,0.93,0.33,1.44,0.33c2.22,0,4.16-2.05,4.94-4.07c0.61-1.59,0.62-3.06,0.04-4.27    C1198.13,658.13,1197.26,657.39,1196.16,657.05z"
   id="path48" />
		<path
   class="st0"
   d="M1325.65,650.8c0.14,0.04,0.29,0.06,0.44,0.06c0.69,0,1.3-0.46,1.49-1.12l0.11-0.38    c0.23-0.81,0.32-1.1,0.53-1.32c0.56-0.65,0.5-1.64-0.15-2.21c-0.29-0.25-0.65-0.38-1.03-0.38c-0.45,0-0.88,0.2-1.18,0.53    c-0.66,0.76-0.88,1.52-1.17,2.51l-0.01,0.04c-0.03,0.1-0.06,0.21-0.09,0.32c-0.12,0.4-0.07,0.82,0.12,1.19    C1324.92,650.41,1325.25,650.68,1325.65,650.8z"
   id="path50" />
		<path
   class="st0"
   d="M1392.68,653.66c-0.28-0.24-0.64-0.37-1.01-0.37c-0.46,0-0.89,0.2-1.19,0.55c-0.18,0.21-0.37,0.44-0.55,0.66    c-1.57,1.89-3.73,4.46-5.55,4.46c-0.14,0-0.28-0.02-0.41-0.05c-0.86-0.2-1.05-0.61-1.44-2.15c-0.39-1.55-0.92-3.68-3.52-4.56    c-1.84-0.62-3.84-0.08-5.92,1.61c-1.55,1.25-2.96,2.96-4.11,4.35l-0.06,0.07c-0.22,0.26-0.46,0.55-0.69,0.83    c0.02-1.09,0.27-2.55,0.76-4.33c0.11-0.4,0.06-0.82-0.15-1.19s-0.54-0.62-0.94-0.73c-0.14-0.04-0.28-0.06-0.41-0.06    c-0.69,0-1.29,0.46-1.49,1.11c-0.15,0.03-0.31,0.04-0.45,0.11c-2.52,1.3-5.44,2.83-8.22,4.7c-0.07-0.18-0.13-0.33-0.19-0.47    c-0.78-1.76-1.88-2.84-3.29-3.22c-0.42-0.12-0.87-0.16-1.31-0.15c0.37-1.05,0.64-2.51,0.04-3.82c-0.58-1.25-1.81-1.97-3.39-1.97    c-0.11,0-0.23,0-0.35,0.01c-2.71,0.17-5.47,1.57-7.77,3.93c-0.17,0.17-0.29,0.36-0.45,0.53c-0.02,0-0.04-0.02-0.05-0.02    c-0.55,0-1.04,0.28-1.33,0.74c-2.78,4.51-6.4,6.16-8.65,6.21c-0.67,0.01-2.09-0.07-2.91-1.04c-0.78-0.93-0.98-2.59-0.55-4.8    c0.08-0.41-0.01-0.83-0.24-1.17c-0.23-0.35-0.59-0.58-1-0.65c-0.1-0.02-0.2-0.03-0.3-0.03c-0.46,0-0.87,0.22-1.15,0.55    c-2.97,0.47-7.39,1.84-11.56,3.58c-0.75-0.37-1.55-0.66-2.27-0.92c-2.73-0.99-2.67-1.28-2.6-1.59c0.2-0.92,2.15-2.15,2.79-2.56    c0.72-0.46,0.94-1.43,0.48-2.15c-0.29-0.45-0.78-0.72-1.32-0.72c-0.3,0-0.58,0.08-0.83,0.24c-1.88,1.19-3.67,2.55-4.13,4.42    c-4.93,5.4-8.78,6.32-10.64,6.39c-0.07,0-0.15,0-0.23,0c-1.41,0-2.67-0.48-3.38-1.28c-0.23-0.26-0.39-0.57-0.51-0.91    c0.17-0.17,0.33-0.36,0.49-0.54c1.99-0.38,3.75-1.34,4.76-2.72c0.89-1.2,1.37-3.24,0.57-4.83c-0.57-1.13-1.68-1.77-3.04-1.77    c-1.43,0-2.89,0.94-4.1,2.65c-0.96,1.35-1.68,3.06-1.92,4.57c-0.05,0.3-0.07,0.59-0.09,0.87c-3.42,3.07-8.18,5.12-14.48,6.2    c1.29-2.15,2.44-4.48,3.43-6.93c2.71-6.73,4.21-14.45,4.46-22.93c0.33-11.1-3.52-16.49-6.81-19.06c-2.49-1.95-5.56-2.98-8.86-2.98    c-1.58,0-3.22,0.23-4.86,0.7c-4.21,1.19-8.14,4.22-11.66,9.03c-3.06,4.18-5.77,9.58-8.03,16.07c-0.7,2.01-1.36,4.13-1.95,6.31    c0.11-1.64,0.24-3.26,0.39-4.84c0.99-10.79,2.43-16.95,2.99-19.1c0.12-0.46,0.06-0.94-0.18-1.35c-0.24-0.41-0.62-0.71-1.08-0.83    c-0.15-0.04-0.3-0.06-0.46-0.06c-0.8,0-1.51,0.55-1.72,1.33c-0.6,2.23-2.08,8.62-3.1,19.68c-0.76,8.23-1.08,17.15-0.97,26.51    c-3.45,0.62-5.88,1.73-7.42,3.4c-1.89,2.04-2.36,5.17-1.21,7.97c0.73,1.79,2.06,3.32,3.84,4.44c1.94,1.22,4.34,1.91,7.12,2.04    c0.68,0.03,1.38,0.05,2.07,0.05c4.69,0,9.21-0.76,13.43-2.24c4.88-1.72,9.3-4.39,13.13-7.94c1.72-1.59,3.32-3.37,4.77-5.28    c1.08-0.12,2.12-0.27,3.08-0.44c6.23-1.04,11.16-2.98,14.96-5.85c0.2,0.33,0.41,0.61,0.62,0.85c1.31,1.48,3.39,2.33,5.71,2.33    c0.12,0,0.23,0,0.35,0c4.62-0.16,8.83-3.41,11.52-6.05c0.13,0.13,0.27,0.25,0.44,0.38c0.71,0.53,1.62,0.91,2.52,1.24    c-1.42,0.71-2.65,1.41-3.66,2.09c-2.01,1.34-3.11,2.52-3.44,3.72c-0.3,1.07,0.02,2.07,0.85,2.69c0.57,0.43,1.38,0.64,2.39,0.64    c0.75,0,1.63-0.12,2.6-0.35c1.86-0.45,3.86-1.27,5.34-2.2c2.91-1.83,3.24-3.61,3.01-4.78c-0.09-0.46-0.25-0.9-0.48-1.31    c3.02-1.18,5.98-2.08,8.26-2.55c-0.01,1.98,0.47,3.6,1.49,4.81c1.17,1.39,3,2.15,5.15,2.15c0.07,0,0.14,0,0.21,0    c1.78-0.04,3.78-0.7,5.63-1.87c0.5-0.31,0.99-0.67,1.46-1.06c0.29,1.63,1.42,2.77,3.21,3.01c0.17,0.02,0.35,0.03,0.53,0.03    c2.03,0,4.09-1.49,6.27-3.07c1.65-1.2,3.71-2.68,4.96-2.68c0.12,0,0.23,0.01,0.32,0.04c0.45,0.12,0.87,0.62,1.25,1.47    c0.14,0.33,0.28,0.71,0.4,1.13c-0.11,0.09-0.22,0.17-0.33,0.26c-4.18,3.36-7.15,7.21-9.08,11.77c-2.69,6.33-2.95,14.71-0.57,18.67    c1.1,1.83,2.49,2.31,3.47,2.4c0.13,0.01,0.27,0.02,0.41,0.02c1.26,0,3.12-0.52,4.89-2.98c1.09-1.53,3.75-6.19,4.8-16.42    c0.22-2.16,0.65-7.69-0.11-12.39c2.26-1.6,4.68-2.95,7.06-4.21c-0.27,2.32,0.05,3.94,0.98,4.93c0.36,0.39,0.85,0.6,1.38,0.6h0.06    h0c1.23-0.04,2.12-1.11,3.75-3.08c1.57-1.89,4.19-5.07,6.12-5.07c0.18,0,0.35,0.03,0.51,0.08c0.9,0.31,1.12,0.86,1.49,2.36    c0.38,1.51,0.95,3.78,3.76,4.44c0.38,0.09,0.76,0.13,1.14,0.13c3.26,0,5.96-3.23,7.92-5.59c0.18-0.22,0.37-0.44,0.54-0.64    C1393.42,655.21,1393.34,654.22,1392.68,653.66z M1355.15,673.99c-0.67,6.58-2.25,12.16-4.23,14.92c-0.8,1.11-1.59,1.68-2.35,1.68    c-0.05,0-0.09,0-0.13-0.01c-0.37-0.03-0.73-0.33-1.07-0.9c-1.65-2.76-1.74-9.94,0.77-15.84c1.58-3.72,3.92-6.9,7.15-9.7    C1355.56,666.96,1355.51,670.45,1355.15,673.99z M1348.06,656.22c-0.17,0.18-0.3,0.4-0.37,0.64c-0.58,0.39-1.16,0.81-1.72,1.21    l-0.06,0.05c-1.59,1.14-3.57,2.57-4.55,2.46c-0.54-0.07-0.65-0.21-0.63-0.76c0.09-2.41,3.89-7.36,8.3-7.64    c0.06,0,0.12-0.01,0.18-0.01c0.29,0,0.49,0.06,0.53,0.15C1350.01,652.91,1349.48,654.76,1348.06,656.22z M1312.94,661.08    c0,0.08-0.17,0.48-0.93,1.08c-1.96,1.53-5.08,2.44-6.72,2.54c0.69-0.69,2.55-2.18,7.2-4.26c0.02-0.01,0.04-0.02,0.07-0.03    C1312.77,660.63,1312.9,660.85,1312.94,661.08z M1238.05,663.32c0.71-8.82,2.62-18.05,5.38-25.99    c4.48-12.85,10.62-20.97,17.29-22.85c1.31-0.37,2.62-0.56,3.87-0.56c2.52,0,4.83,0.77,6.68,2.21c3.79,2.95,5.66,8.53,5.44,16.14    c-0.24,8.07-1.65,15.37-4.21,21.71c-1.29,3.22-2.89,6.21-4.75,8.86c-3.04,0.29-6.43,0.42-10.67,0.42c-2.25,0-4.45-0.04-6.59-0.07    h-0.04c-1.99-0.03-4.05-0.07-6.01-0.07C1241.89,663.13,1239.85,663.19,1238.05,663.32z M1237.83,666.91    c1.81-0.14,3.93-0.21,6.65-0.21c1.89,0,3.82,0.03,5.86,0.07h0.08c2.17,0.04,4.41,0.07,6.7,0.07c2.87,0,5.36-0.06,7.62-0.19    c-0.71,0.78-1.46,1.54-2.22,2.25c-6.52,6.05-14.86,9.24-24.12,9.24c-0.64,0-1.28-0.02-1.93-0.05c-5.59-0.26-7.33-3.07-7.82-4.27    c-0.62-1.52-0.41-3.17,0.54-4.2c0.94-1.02,2.53-1.74,4.87-2.22c0.05,2.03,0.12,4.1,0.21,6.16c0.04,0.96,0.82,1.71,1.78,1.71    c0.03,0,0.05,0,0.08,0c0.48-0.02,0.92-0.22,1.24-0.58c0.32-0.35,0.49-0.8,0.47-1.28C1237.74,671.37,1237.74,669.18,1237.83,666.91    z M1291.34,653.81c-0.16-0.13-0.34-0.23-0.54-0.3c0.7-1.39,1.67-2.43,2.18-2.43c0.15,0,0.24,0.02,0.26,0.06    c0.16,0.31,0.05,1.11-0.29,1.57c-0.33,0.45-0.9,0.85-1.58,1.14C1291.36,653.84,1291.35,653.82,1291.34,653.81z"
   id="path52" />
	</g>
</g>
</svg>
